<?xml version="1.0" encoding="utf-8"?>
<!-- Generator: Adobe Illustrator 18.1.1, SVG Export Plug-In . SVG Version: 6.00 Build 0)  -->
<svg version="1.1" id="Layer_1" xmlns="http://www.w3.org/2000/svg" xmlns:xlink="http://www.w3.org/1999/xlink" x="0px" y="0px"
	 viewBox="0 0 70.5 57.5" enable-background="new 0 0 70.5 57.5" xml:space="preserve">
<g>
	<path fill="none" stroke="#FFFFFF" stroke-width="1.2" stroke-linecap="round" stroke-linejoin="round" d="
		M57.102,24.15c0.04,0.504,0.057,1.016,0.057,1.531c0,11.622-9.811,21.046-21.911,21.046c-12.1,0-21.911-9.424-21.911-21.046
		c0-0.515,0.017-1.027,0.057-1.531"/>
	<path fill="none" stroke="#FFFFFF" stroke-width="1.2" stroke-linecap="round" stroke-linejoin="round" d="
		M43.044,17.083c2.496,2.091,4.075,5.168,4.075,8.598c0,6.296-5.317,11.399-11.871,11.399c-6.554,0-11.868-5.103-11.868-11.399
		c0-3.806,1.943-7.176,4.925-9.247"/>
	<path fill="none" stroke="#FFFFFF" stroke-width="1.2" stroke-linecap="round" stroke-linejoin="round" d="
		M70.25,36.204c0,0-15.672,21.046-35.002,21.046c-19.33,0-34.998-21.046-34.998-21.046s15.669-21.045,34.998-21.045
		C54.578,15.158,70.25,36.204,70.25,36.204z"/>
	<path fill="none" stroke="#FFFFFF" stroke-width="1.2" stroke-linecap="round" stroke-linejoin="round" d="
		M4.734,13.315C11.008,5.481,22.324,0.25,35.248,0.25c12.81,0,24.046,5.138,30.348,12.861"/>
</g>
</svg>
