<?xml version="1.0" encoding="utf-8"?>
<!DOCTYPE svg PUBLIC "-//W3C//DTD SVG 1.1//EN" "http://www.w3.org/Graphics/SVG/1.1/DTD/svg11.dtd">
<svg version="1.1" baseProfile="full"
 xmlns="http://www.w3.org/2000/svg"
 xmlns:xlink="http://www.w3.org/1999/xlink"
 xmlns:ev="http://www.w3.org/2001/xml-events" 
  height="32px" 
  width="132px" 
>
<path fill="rgb( 255, 255, 255 )"
 d="M124.417,31.241 C121.771,31.241 118.558,29.79 117.802,29.191 C117.581,29.003 117.581,28.844 117.77,28.372 C117.77,28.372 118.274,27.023 118.274,27.023 C118.369,26.772 118.778,26.867 119.093,26.961 C119.912,27.181 122.559,28.222 124.386,28.222 C126.654,28.222 128.166,27.355 128.166,23.833 C128.166,23.833 128.166,22.51 128.166,22.51 C128.166,22.51 128.103,22.51 128.103,22.51 C127.316,23.707 125.93,24.81 123.252,24.81 C119.597,24.81 116.479,22.73 116.479,16.178 C116.479,9.688 119.566,7.64 123.157,7.64 C125.552,7.64 127.442,8.36499999999999 128.733,10.003 C128.733,10.003 128.797,10.003 128.797,10.003 C128.797,10.003 129.111,8.68000000000001 129.111,8.68000000000001 C129.206,8.239 129.301,8.05 129.742,8.05 C129.742,8.05 131.317,8.05 131.317,8.05 C131.758,8.05 131.947,8.239 131.947,8.68000000000001 C131.947,8.68000000000001 131.947,22.879 131.947,22.879 C131.947,29.337 128.86,31.241 124.417,31.241 ZM123.819,10.286 C121.519,10.286 120.259,11.42 120.259,16.178 C120.259,21.092 121.614,22.163 123.787,22.163 C126.56,22.163 128.166,20.462 128.166,16.178 C128.166,11.987 126.623,10.286 123.819,10.286 ZM113.128,24.432 C113.128,24.432 110.545,24.432 110.545,24.432 C110.135,24.432 109.946,24.243 109.946,23.802 C109.946,23.802 109.946,14.917 109.946,14.917 C109.946,12.492 109.253,10.318 107.079,10.318 C104.842,10.318 103.771,11.987 103.771,15.233 C103.771,15.233 103.771,23.802 103.771,23.802 C103.771,24.243 103.582,24.432 103.141,24.432 C103.141,24.432 100.621,24.432 100.621,24.432 C100.18,24.432 99.991,24.243 99.991,23.802 C99.991,23.802 99.991,8.68000000000001 99.991,8.68000000000001 C99.991,8.239 100.18,8.05 100.621,8.05 C100.621,8.05 102.196,8.05 102.196,8.05 C102.637,8.05 102.732,8.239 102.826,8.68000000000001 C102.826,8.68000000000001 103.141,9.97199999999999 103.141,9.97199999999999 C103.141,9.97199999999999 103.204,9.97199999999999 103.204,9.97199999999999 C103.96,8.491 105.788,7.67100000000001 107.394,7.67100000000001 C110.891,7.67100000000001 113.727,9.908 113.727,13.846 C113.727,13.846 113.727,23.802 113.727,23.802 C113.727,24.243 113.537,24.432 113.128,24.432 ZM94.502,5.459 C93.188,5.459 92.122,4.393 92.122,3.07899999999999 C92.122,1.764 93.188,0.698 94.502,0.698 C95.817,0.698 96.882,1.764 96.882,3.07899999999999 C96.882,4.393 95.817,5.459 94.502,5.459 ZM88.974,24.432 C88.974,24.432 86.391,24.432 86.391,24.432 C85.981,24.432 85.792,24.243 85.792,23.802 C85.792,23.802 85.792,14.917 85.792,14.917 C85.792,12.492 85.099,10.318 82.925,10.318 C80.689,10.318 79.617,11.987 79.617,15.233 C79.617,15.233 79.617,23.802 79.617,23.802 C79.617,24.243 79.428,24.432 78.987,24.432 C78.987,24.432 76.467,24.432 76.467,24.432 C76.026,24.432 75.837,24.243 75.837,23.802 C75.837,23.802 75.837,8.68000000000001 75.837,8.68000000000001 C75.837,8.239 76.026,8.05 76.467,8.05 C76.467,8.05 78.042,8.05 78.042,8.05 C78.483,8.05 78.578,8.239 78.672,8.68000000000001 C78.672,8.68000000000001 78.987,9.97199999999999 78.987,9.97199999999999 C78.987,9.97199999999999 79.05,9.97199999999999 79.05,9.97199999999999 C79.806,8.491 81.634,7.67100000000001 83.24,7.67100000000001 C86.737,7.67100000000001 89.573,9.908 89.573,13.846 C89.573,13.846 89.573,23.802 89.573,23.802 C89.573,24.243 89.384,24.432 88.974,24.432 ZM65.608,31.241 C62.962,31.241 59.748,29.587 58.992,28.989 C58.772,28.799 58.772,29.022 58.961,28.549 C58.961,28.549 59.465,26.821 59.465,26.821 C59.559,26.569 59.969,26.663 60.284,26.758 C61.103,26.979 63.749,28.222 65.576,28.222 C67.845,28.222 69.357,27.654 69.357,23.833 C69.357,23.833 69.357,22.51 69.357,22.51 C69.357,22.51 69.294,22.51 69.294,22.51 C68.506,23.707 67.12,24.81 64.442,24.81 C60.788,24.81 57.669,22.73 57.669,16.178 C57.669,9.688 60.756,7.64 64.348,7.64 C66.742,7.64 68.632,8.36499999999999 69.924,10.003 C69.924,10.003 69.987,10.003 69.987,10.003 C69.987,10.003 70.302,8.68000000000001 70.302,8.68000000000001 C70.397,8.239 70.491,8.05 70.932,8.05 C70.932,8.05 72.507,8.05 72.507,8.05 C72.948,8.05 73.137,8.239 73.137,8.68000000000001 C73.137,8.68000000000001 73.137,22.879 73.137,22.879 C73.137,29.363 70.05,31.241 65.608,31.241 ZM65.009,10.286 C62.71,10.286 61.449,11.42 61.449,16.178 C61.449,21.092 62.804,22.163 64.978,22.163 C67.75,22.163 69.357,20.462 69.357,16.178 C69.357,11.987 67.813,10.286 65.009,10.286 ZM53.191,5.459 C51.876,5.459 50.81,4.393 50.81,3.07899999999999 C50.81,1.764 51.876,0.698 53.191,0.698 C54.505,0.698 55.571,1.764 55.571,3.07899999999999 C55.571,4.393 54.505,5.459 53.191,5.459 ZM45.044,14.949 C47.785,15.737 48.635,17.249 48.635,19.706 C48.635,23.108 45.548,24.81 42.083,24.81 C39.436,24.81 37.01,24.085 36.412,23.266 C36.191,22.951 36.191,22.73 36.38,22.447 C36.38,22.447 37.042,21.439 37.042,21.439 C37.2,21.218 37.578,21.281 37.861,21.376 C39.09,21.785 40.35,22.163 41.894,22.163 C44.509,22.163 45.044,21.061 45.044,20.053 C45.044,19.076 44.414,18.667 42.587,18.099 C42.587,18.099 39.877,17.28 39.877,17.28 C37.515,16.556 36.538,14.792 36.538,12.712 C36.538,9.81399999999999 38.586,7.64 42.429,7.64 C45.107,7.64 47.218,8.491 47.911,9.185 C48.037,9.31 48.226,9.53 47.911,10.003 C47.911,10.003 47.249,11.011 47.249,11.011 C47.123,11.294 46.714,11.169 46.43,11.074 C45.296,10.665 44.13,10.286 42.776,10.286 C40.917,10.286 40.129,11.106 40.129,12.334 C40.129,13.059 40.476,13.626 41.358,13.878 C41.358,13.878 45.044,14.949 45.044,14.949 ZM30.772,17.564 C30.772,17.564 24.314,17.564 24.314,17.564 C24.566,20.211 25.511,22.163 28.283,22.163 C29.512,22.163 30.709,21.785 32.001,21.376 C32.631,21.187 32.725,21.312 32.82,21.439 C32.82,21.439 33.481,22.447 33.481,22.447 C33.671,22.73 33.702,22.982 33.45,23.266 C32.851,23.959 30.552,24.81 27.874,24.81 C22.046,24.81 20.47,20.809 20.47,16.399 C20.47,11.547 22.361,7.64 27.464,7.64 C31.276,7.64 34.206,9.846 34.206,14.413 C34.206,16.839 33.387,17.564 30.772,17.564 ZM27.622,10.286 C25.322,10.286 24.503,12.428 24.314,14.917 C24.314,14.917 29.165,14.917 29.165,14.917 C30.142,14.917 30.394,14.792 30.394,13.846 C30.394,11.987 29.292,10.286 27.622,10.286 ZM7.952,24.432 C7.952,24.432 4.04199999999997,24.432 4.04199999999997,24.432 C4.04199999999997,24.432 1.52199999999999,24.432 1.52199999999999,24.432 C1.52199999999999,24.432 1.46199999999999,24.432 1.46199999999999,24.432 C1.02100000000002,24.432 0.83199999999999,24.243 0.83199999999999,23.802 C0.83199999999999,23.802 0.83199999999999,8.496 0.83199999999999,8.496 C0.83199999999999,8.496 0.91500000000002,8.496 0.91500000000002,8.496 C0.96800000000002,8.193 1.15199999999999,8.05 1.52199999999999,8.05 C1.52199999999999,8.05 4.04199999999997,8.05 4.04199999999997,8.05 C4.41199999999998,8.05 4.596,8.193 4.649,8.496 C4.649,8.496 4.80200000000002,8.496 4.80200000000002,8.496 C4.80200000000002,8.496 4.80200000000002,21.596 4.80200000000002,21.596 C4.80200000000002,21.596 7.92000000000002,21.596 7.92000000000002,21.596 C11.316,21.596 13.853,18.304 14.133,13.767 C14.238,13.569 14.298,13.268 14.298,12.834 C14.298,8.345 12.051,6.00700000000001 10.472,4.742 C9.846,4.29900000000001 8.81799999999998,3.81999999999999 8.68000000000001,3.181 C8.60300000000001,2.82599999999999 8.63499999999999,2.16500000000001 8.80599999999998,1.85 C8.93099999999998,1.708 9.036,1.624 9.17000000000002,1.571 C13.662,2.727 18.317,6.3 18.317,12.996 C18.317,19.549 13.686,24.369 7.952,24.432 ZM2.91800000000001,5.459 C1.60399999999999,5.459 0.53800000000001,4.393 0.53800000000001,3.07899999999999 C0.53800000000001,1.764 1.60399999999999,0.698 2.91800000000001,0.698 C4.233,0.698 5.298,1.764 5.298,3.07899999999999 C5.298,4.393 4.233,5.459 2.91800000000001,5.459 ZM51.87,8.05 C51.87,8.05 54.391,8.05 54.391,8.05 C54.832,8.05 55.021,8.239 55.021,8.68000000000001 C55.021,8.68000000000001 55.021,23.802 55.021,23.802 C55.021,24.243 54.832,24.432 54.391,24.432 C54.391,24.432 51.87,24.432 51.87,24.432 C51.429,24.432 51.24,24.243 51.24,23.802 C51.24,23.802 51.24,8.68000000000001 51.24,8.68000000000001 C51.24,8.239 51.429,8.05 51.87,8.05 ZM93.27,8.05 C93.27,8.05 95.79,8.05 95.79,8.05 C96.231,8.05 96.42,8.239 96.42,8.68000000000001 C96.42,8.68000000000001 96.42,23.802 96.42,23.802 C96.42,24.243 96.231,24.432 95.79,24.432 C95.79,24.432 93.27,24.432 93.27,24.432 C92.829,24.432 92.64,24.243 92.64,23.802 C92.64,23.802 92.64,8.68000000000001 92.64,8.68000000000001 C92.64,8.239 92.829,8.05 93.27,8.05 Z "/>
</svg>
