<?xml version="1.0" encoding="utf-8"?>
<!-- Generator: Adobe Illustrator 18.1.1, SVG Export Plug-In . SVG Version: 6.00 Build 0)  -->
<svg version="1.1" id="Layer_1" xmlns="http://www.w3.org/2000/svg" xmlns:xlink="http://www.w3.org/1999/xlink" x="0px" y="0px"
	 viewBox="0 0 65.666 56.666" enable-background="new 0 0 65.666 56.666" xml:space="preserve">
<g>
	<path fill="none" stroke="#FFFFFF" stroke-width="1.5" stroke-linecap="round" stroke-linejoin="round" d="
		M65.416,31.972c0,6.893-6.213,12.481-13.872,12.481H14.119c-7.661,0-13.869-5.588-13.869-12.481V12.731
		C0.25,5.838,6.458,0.25,14.119,0.25h37.425c7.658,0,13.872,5.588,13.872,12.481V31.972z"/>

		<line fill="none" stroke="#FFFFFF" stroke-width="1.5" stroke-linecap="round" stroke-linejoin="round" x1="18.118" y1="56.416" x2="47.548" y2="56.416"/>

		<line fill="none" stroke="#FFFFFF" stroke-width="1.5" stroke-linecap="round" stroke-linejoin="round" x1="31.013" y1="38.53" x2="34.65" y2="38.53"/>

		<line fill="none" stroke="#FFFFFF" stroke-width="1.5" stroke-linecap="round" stroke-linejoin="round" x1="0.715" y1="32.569" x2="64.945" y2="32.569"/>
	<path fill="none" stroke="#FFFFFF" stroke-width="1.5" stroke-linecap="round" stroke-linejoin="round" d="
		M17.658,56.416c0,0,8.584-3.901,8.584-11.868"/>
	<path fill="none" stroke="#FFFFFF" stroke-width="1.5" stroke-linecap="round" stroke-linejoin="round" d="
		M47.728,56.416c0,0-8.584-3.901-8.584-11.868"/>
</g>
</svg>
